<svg width="20" height="21" viewBox="0 0 20 21" fill="none" xmlns="http://www.w3.org/2000/svg">
<path d="M7.06988 10.276C7.06988 11.838 8.33618 13.1043 9.89824 13.1043C10.5808 13.1043 11.2069 12.8626 11.6956 12.4599M9.89824 7.44764C11.4603 7.44764 12.7266 8.71394 12.7266 10.276C12.7266 11.1555 12.3252 11.9412 11.6956 12.4599M11.6956 12.4599L13.3621 14.2456M14.1409 3.61757C13.434 3.20945 12.9699 2.54226 12.7994 1.80517C12.7276 1.49521 12.5269 1.21383 12.2184 1.13577C11.4762 0.947941 10.6989 0.848145 9.89825 0.848145C9.09768 0.848145 8.32043 0.947927 7.57823 1.13573C7.26979 1.21378 7.069 1.49518 6.99728 1.80515C6.82673 2.54225 6.36266 3.20945 5.65576 3.61757C5.00616 3.99262 4.26963 4.08069 3.59296 3.92113C3.28366 3.8482 2.94293 3.90344 2.73616 4.14476C1.98083 5.02626 1.38541 6.04883 0.994873 7.16751C0.876775 7.5058 1.04844 7.8642 1.32497 8.09204C1.95458 8.61079 2.356 9.39651 2.356 10.276C2.356 11.1555 1.95458 11.9412 1.32497 12.4599C1.04844 12.6878 0.876774 13.0462 0.994871 13.3845C1.38536 14.503 1.98069 15.5255 2.73591 16.4069C2.94269 16.6483 3.28346 16.7035 3.59279 16.6306C4.2695 16.4709 5.0061 16.559 5.65575 16.9341C6.36273 17.3423 6.82683 18.0096 6.99733 18.7468C7.06903 19.0568 7.26983 19.3382 7.5783 19.4163C8.32048 19.6041 9.09771 19.7038 9.89825 19.7038C10.6988 19.7038 11.4761 19.6041 12.2183 19.4162C12.5268 19.3382 12.7276 19.0568 12.7993 18.7468C12.9698 18.0096 13.4339 17.3423 14.1408 16.9341C14.7905 16.559 15.527 16.4709 16.2037 16.6305C16.5131 16.7035 16.8538 16.6483 17.0606 16.4069C17.8158 15.5255 18.4111 14.503 18.8016 13.3845C18.9197 13.0462 18.7481 12.6878 18.4715 12.4599C17.8419 11.9412 17.4405 11.1555 17.4405 10.276C17.4405 9.39652 17.8419 8.6108 18.4715 8.09205C18.7481 7.86421 18.9197 7.50581 18.8016 7.16752C18.4111 6.04885 17.8157 5.02629 17.0604 4.14479C16.8536 3.90348 16.5129 3.84823 16.2036 3.92115C15.5269 4.08069 14.7904 3.9926 14.1409 3.61757Z" stroke="#666666" stroke-width="1.48861" stroke-linecap="round" stroke-linejoin="round"/>
</svg>
