<svg width="20" height="19" viewBox="0 0 20 19" fill="none" xmlns="http://www.w3.org/2000/svg">
<path d="M17.4057 1.9386L17.9167 1.39748L17.9167 1.39748L17.4057 1.9386ZM18.0575 2.55425L17.5465 3.09537L17.5465 3.09537L18.0575 2.55425ZM1.35693 3.8453C0.945866 3.8453 0.61263 4.17853 0.61263 4.5896C0.61263 5.00067 0.945866 5.3339 1.35693 5.3339V3.8453ZM19.2202 5.3339C19.6313 5.3339 19.9645 5.00067 19.9645 4.5896C19.9645 4.17853 19.6313 3.8453 19.2202 3.8453V5.3339ZM8.05567 8.33869C8.05567 7.92762 7.72243 7.59438 7.31136 7.59438C6.9003 7.59438 6.56706 7.92762 6.56706 8.33869L8.05567 8.33869ZM14.0101 8.33869C14.0101 7.92762 13.6769 7.59438 13.2658 7.59438C12.8547 7.59438 12.5215 7.92762 12.5215 8.33869L14.0101 8.33869ZM19.2202 5.20525H18.4759V13.9623H19.2202H19.9645V5.20525H19.2202ZM15.2506 17.7114V16.9671H5.32655V17.7114V18.4557H15.2506V17.7114ZM1.35693 13.9623H2.10124V5.20525H1.35693H0.61263V13.9623H1.35693ZM2.51961 2.55425L3.03066 3.09537L3.68253 2.47972L3.17147 1.9386L2.66042 1.39748L2.00855 2.01313L2.51961 2.55425ZM5.97842 0.840515V1.58482H14.5987V0.840515V0.0962113H5.97842V0.840515ZM17.4057 1.9386L16.8946 2.47972L17.5465 3.09537L18.0575 2.55425L18.5686 2.01313L17.9167 1.39748L17.4057 1.9386ZM14.5987 0.840515V1.58482C15.4681 1.58482 15.7058 1.59677 15.9093 1.67636L16.1804 0.983206L16.4516 0.290055C15.9255 0.084257 15.3519 0.0962113 14.5987 0.0962113V0.840515ZM17.4057 1.9386L17.9167 1.39748C17.3847 0.895012 16.9819 0.497528 16.4516 0.290055L16.1804 0.983206L15.9093 1.67636C16.1084 1.75427 16.2793 1.89858 16.8946 2.47972L17.4057 1.9386ZM3.17147 1.9386L3.68253 2.47972C4.29785 1.89858 4.46874 1.75427 4.66789 1.67636L4.39673 0.983206L4.12557 0.290055C3.59522 0.497528 3.19244 0.895013 2.66042 1.39748L3.17147 1.9386ZM5.97842 0.840515V0.0962113C5.22522 0.0962113 4.65163 0.084257 4.12557 0.290055L4.39673 0.983206L4.66789 1.67636C4.87133 1.59677 5.10904 1.58482 5.97842 1.58482V0.840515ZM5.32655 17.7114V16.9671C4.371 16.9671 3.72511 16.9657 3.24243 16.9044C2.77701 16.8453 2.57736 16.7422 2.44933 16.6212L1.93827 17.1624L1.42721 17.7035C1.88052 18.1316 2.43936 18.303 3.05492 18.3811C3.65323 18.4571 4.41081 18.4557 5.32655 18.4557V17.7114ZM1.35693 13.9623H0.61263C0.61263 14.8237 0.610862 15.549 0.692726 16.1241C0.778289 16.7251 0.967903 17.2697 1.42721 17.7035L1.93827 17.1624L2.44933 16.6212C2.3273 16.506 2.22625 16.3342 2.16648 15.9143C2.10301 15.4684 2.10124 14.8682 2.10124 13.9623H1.35693ZM19.2202 13.9623H18.4759C18.4759 14.8682 18.4742 15.4684 18.4107 15.9143C18.3509 16.3342 18.2499 16.506 18.1278 16.6212L18.6389 17.1624L19.1499 17.7035C19.6093 17.2697 19.7989 16.7251 19.8844 16.1241C19.9663 15.549 19.9645 14.8237 19.9645 13.9623H19.2202ZM15.2506 17.7114V18.4557C16.1664 18.4557 16.9239 18.4571 17.5222 18.3811C18.1378 18.303 18.6966 18.1316 19.1499 17.7035L18.6389 17.1624L18.1278 16.6212C17.9998 16.7422 17.8001 16.8453 17.3347 16.9044C16.852 16.9657 16.2062 16.9671 15.2506 16.9671V17.7114ZM19.2202 5.20525H19.9645C19.9645 4.50243 19.979 3.93292 19.7508 3.41249L19.0691 3.71143L18.3875 4.01038C18.4614 4.17892 18.4759 4.37563 18.4759 5.20525H19.2202ZM18.0575 2.55425L17.5465 3.09537C18.1668 3.68124 18.3114 3.83695 18.3875 4.01038L19.0691 3.71143L19.7508 3.41249C19.5247 2.89695 19.0956 2.51085 18.5686 2.01313L18.0575 2.55425ZM1.35693 5.20525H2.10124C2.10124 4.37564 2.11573 4.17892 2.18965 4.01038L1.50802 3.71143L0.826389 3.41249C0.598137 3.93292 0.61263 4.50243 0.61263 5.20525H1.35693ZM2.51961 2.55425L2.00855 2.01313C1.48155 2.51085 1.05249 2.89695 0.826389 3.41249L1.50802 3.71143L2.18965 4.01038C2.26571 3.83695 2.41032 3.68124 3.03066 3.09537L2.51961 2.55425ZM1.35693 4.5896V5.3339H19.2202V4.5896V3.8453H1.35693V4.5896ZM7.31136 8.33869L6.56706 8.33869C6.56706 9.296 6.97011 10.2049 7.67231 10.8681L8.18337 10.3269L8.69443 9.78582C8.27995 9.39437 8.05567 8.87285 8.05567 8.33869L7.31136 8.33869ZM8.18337 10.3269L7.67231 10.8681C8.37307 11.5299 9.31486 11.8948 10.2886 11.8948L10.2886 11.1505L10.2886 10.4062C9.68308 10.4062 9.11034 10.1786 8.69443 9.78582L8.18337 10.3269ZM10.2886 11.1505L10.2886 11.8948C11.2623 11.8948 12.2041 11.5299 12.9048 10.8681L12.3938 10.3269L11.8827 9.78582C11.4668 10.1786 10.8941 10.4062 10.2886 10.4062L10.2886 11.1505ZM12.3938 10.3269L12.9048 10.8681C13.607 10.2049 14.0101 9.296 14.0101 8.33869L13.2658 8.33869L12.5215 8.33869C12.5215 8.87285 12.2972 9.39437 11.8827 9.78582L12.3938 10.3269Z" fill="#666666"/>
</svg>
