<svg width="20" height="20" viewBox="0 0 20 20" fill="none" xmlns="http://www.w3.org/2000/svg">
<path d="M1.23535 1L2.21032 1.20401C3.01121 1.37159 3.61362 2.06666 3.69489 2.91694L3.83685 4.40223M3.83685 4.40223L4.75536 12.4104C4.86743 13.3875 5.65971 14.1229 6.60034 14.1229H14.9557C16.4479 14.1229 17.7486 13.0604 18.1105 11.5458L19.1537 7.18022C19.4909 5.76914 18.4708 4.40223 17.0805 4.40223H3.83685ZM8.66821 17.5251C8.66821 18.3304 8.04425 18.9832 7.27455 18.9832C6.50485 18.9832 5.88089 18.3304 5.88089 17.5251C5.88089 16.7198 6.50485 16.067 7.27455 16.067C8.04425 16.067 8.66821 16.7198 8.66821 17.5251ZM17.0302 17.5251C17.0302 18.3304 16.4062 18.9832 15.6365 18.9832C14.8668 18.9832 14.2429 18.3304 14.2429 17.5251C14.2429 16.7198 14.8668 16.067 15.6365 16.067C16.4062 16.067 17.0302 16.7198 17.0302 17.5251Z" stroke="white" stroke-width="1.34874" stroke-linecap="round"/>
</svg>
