<svg width="25" height="19" viewBox="0 0 25 19" fill="none" xmlns="http://www.w3.org/2000/svg">
<path d="M18.4338 8.79513C20.1362 8.79513 21.5162 7.4151 21.5162 5.71276C21.5162 4.01041 20.1362 2.63039 18.4338 2.63039M21.8097 15.8273L22.1117 15.8705C23.0175 15.9999 23.828 15.297 23.828 14.382V13.3683C23.828 12.7053 23.4112 12.1139 22.7868 11.8909C22.164 11.6684 21.5284 11.4952 20.8857 11.3712M6.17442 8.79513C4.47207 8.79513 3.09205 7.4151 3.09205 5.71276C3.09205 4.01041 4.47207 2.63039 6.17442 2.63039M2.79856 15.8273L2.49654 15.8705C1.59071 15.9999 0.780273 15.297 0.780273 14.382V13.3683C0.780273 12.7053 1.19705 12.1139 1.82141 11.8909C2.44422 11.6684 3.07981 11.4952 3.72253 11.3712M8.6263 4.76353C8.6263 6.93015 10.3827 8.68654 12.5493 8.68654C14.7159 8.68654 16.4723 6.93015 16.4723 4.76353C16.4723 2.59691 14.7159 0.840515 12.5493 0.840515C10.3827 0.840515 8.6263 2.59691 8.6263 4.76353ZM16.2162 17.5469L17.2303 17.6918C18.3831 17.8565 19.4146 16.9619 19.4146 15.7973V14.5071C19.4146 13.6633 18.8841 12.9106 18.0895 12.6268C14.5069 11.3473 10.5918 11.3473 7.00913 12.6268C6.21449 12.9106 5.68404 13.6633 5.68404 14.5071V15.7973C5.68404 16.9619 6.71551 17.8565 7.86839 17.6918L8.88245 17.5469C11.3147 17.1995 13.784 17.1995 16.2162 17.5469Z" stroke="#666666" stroke-width="1.48861" stroke-linecap="round"/>
</svg>
