<svg width="19" height="17" viewBox="0 0 19 17" fill="none" xmlns="http://www.w3.org/2000/svg">
<path d="M2.32121 9.60654L8.57272 15.4792C8.78807 15.6815 8.89574 15.7826 9.02269 15.8075C9.07986 15.8187 9.13867 15.8187 9.19584 15.8075C9.32279 15.7826 9.43046 15.6815 9.6458 15.4792L15.8973 9.60654C17.6562 7.95423 17.8698 5.23518 16.3905 3.32848L16.1123 2.96996C14.3426 0.68901 10.7904 1.07154 9.54685 3.67698C9.3712 4.04501 8.84732 4.04501 8.67167 3.67698C7.42817 1.07154 3.8759 0.68901 2.1062 2.96996L1.82804 3.32848C0.348703 5.23518 0.562298 7.95423 2.32121 9.60654Z" stroke="white" stroke-width="1.34874"/>
</svg>
