<svg width="20" height="20" viewBox="0 0 20 20" fill="none" xmlns="http://www.w3.org/2000/svg">
<path d="M1.15723 10.7658C1.15723 8.8765 1.15723 7.93184 1.55434 7.11208C1.5545 7.11175 1.55466 7.11143 1.55482 7.1111C1.95216 6.29145 2.69361 5.7061 4.1765 4.53539L5.19418 3.73196C7.55511 1.86807 8.73558 0.936121 10.1137 0.936121C11.4918 0.936121 12.6723 1.86807 15.0332 3.73196L16.0509 4.53539C17.5338 5.7061 18.2752 6.29145 18.6725 7.1111C18.6727 7.11143 18.6729 7.11175 18.673 7.11208C19.0701 7.93184 19.0701 8.8765 19.0701 10.7658V13.8014C19.0701 14.6682 19.0701 15.1016 19.0027 15.4627C18.7018 17.0746 17.4409 18.3355 15.829 18.6364C15.4679 18.7038 15.0345 18.7038 14.1677 18.7038V18.7038C13.951 18.7038 13.8426 18.7038 13.7523 18.687C13.3494 18.6118 13.0341 18.2965 12.9589 17.8936C12.942 17.8033 12.942 17.6949 12.942 17.4782V13.8907C12.942 13.1054 12.942 12.7128 12.8325 12.3968C12.6333 11.8225 12.1819 11.371 11.6075 11.1719C11.2916 11.0623 10.899 11.0623 10.1137 11.0623V11.0623C9.32841 11.0623 8.93577 11.0623 8.61986 11.1719C8.04548 11.371 7.59406 11.8225 7.39488 12.3968C7.28533 12.7128 7.28533 13.1054 7.28533 13.8907V17.4782C7.28533 17.6949 7.28533 17.8033 7.26847 17.8936C7.19325 18.2965 6.87801 18.6118 6.47505 18.687C6.38477 18.7038 6.27642 18.7038 6.05971 18.7038V18.7038C5.19288 18.7038 4.75947 18.7038 4.39833 18.6364C2.78651 18.3355 1.52557 17.0746 1.22465 15.4627C1.15723 15.1016 1.15723 14.6682 1.15723 13.8014V10.7658Z" stroke="#666666" stroke-width="1.48861"/>
</svg>
