<svg width="20" height="19" viewBox="0 0 20 19" fill="none" xmlns="http://www.w3.org/2000/svg">
<path d="M1.55713 3.32153C1.55713 1.9513 2.66792 0.840515 4.03814 0.840515H6.02295C7.39318 0.840515 8.50396 1.9513 8.50396 3.32153V5.30634C8.50396 6.67656 7.39318 7.78735 6.02295 7.78735H4.03814C2.66792 7.78735 1.55713 6.67656 1.55713 5.30634V3.32153Z" stroke="#584CF4" stroke-width="1.48861"/>
<path d="M1.55713 13.2456C1.55713 11.8754 2.66792 10.7646 4.03814 10.7646H6.02295C7.39318 10.7646 8.50396 11.8754 8.50396 13.2456V15.2304C8.50396 16.6006 7.39318 17.7114 6.02295 17.7114H4.03814C2.66792 17.7114 1.55713 16.6006 1.55713 15.2304V13.2456Z" stroke="#584CF4" stroke-width="1.48861"/>
<path d="M11.4812 3.32153C11.4812 1.9513 12.592 0.840515 13.9622 0.840515H15.947C17.3172 0.840515 18.428 1.9513 18.428 3.32153V5.30634C18.428 6.67656 17.3172 7.78735 15.947 7.78735H13.9622C12.592 7.78735 11.4812 6.67656 11.4812 5.30634V3.32153Z" stroke="#584CF4" stroke-width="1.48861"/>
<path d="M11.4812 13.2456C11.4812 11.8754 12.592 10.7646 13.9622 10.7646H15.947C17.3172 10.7646 18.428 11.8754 18.428 13.2456V15.2304C18.428 16.6006 17.3172 17.7114 15.947 17.7114H13.9622C12.592 17.7114 11.4812 16.6006 11.4812 15.2304V13.2456Z" stroke="#584CF4" stroke-width="1.48861"/>
</svg>
